<svg xmlns="http://www.w3.org/2000/svg" viewBox="0 0 640 400" role="img" aria-label="Sthira markets portfolio preview">
  <defs>
    <linearGradient id="g" x1="0" y1="0" x2="0" y2="1">
      <stop offset="0%" stop-color="#f0fdf4"/>
      <stop offset="100%" stop-color="#dcfce7"/>
    </linearGradient>
  </defs>
  <rect width="640" height="400" fill="url(#g)"/>
  <rect x="200" y="20" width="240" height="360" rx="20" fill="#0f172a"/>
  <rect x="210" y="48" width="220" height="324" rx="14" fill="#f8fafc"/>
  <text x="320" y="80" font-family="system-ui, sans-serif" font-size="10" fill="#64748b" text-anchor="middle">PORTFOLIO</text>
  <text x="320" y="110" font-family="system-ui, sans-serif" font-size="28" font-weight="700" fill="#0f172a" text-anchor="middle">₹4,82,140</text>
  <text x="320" y="128" font-family="system-ui, sans-serif" font-size="11" fill="#16a34a" text-anchor="middle">+ ₹12,420 (2.65%)</text>
  <polyline points="220,200 250,195 280,185 310,190 340,170 370,165 400,150 425,155" fill="none" stroke="#16a34a" stroke-width="2"/>
  <rect x="220" y="220" width="200" height="40" rx="6" fill="#ffffff" stroke="#e2e8f0"/>
  <text x="230" y="238" font-family="system-ui, sans-serif" font-size="11" font-weight="600" fill="#0f172a">SIP — Nifty 50</text>
  <text x="230" y="252" font-family="system-ui, sans-serif" font-size="9" fill="#64748b">5th of every month · ₹5,000</text>
  <text x="410" y="245" font-family="system-ui, sans-serif" font-size="11" fill="#16a34a" text-anchor="end">+8.2%</text>
  <rect x="220" y="268" width="200" height="40" rx="6" fill="#ffffff" stroke="#e2e8f0"/>
  <text x="230" y="286" font-family="system-ui, sans-serif" font-size="11" font-weight="600" fill="#0f172a">Rebalance — Drift 4.2%</text>
  <text x="230" y="300" font-family="system-ui, sans-serif" font-size="9" fill="#64748b">Pre-authorized · Ready</text>
  <text x="410" y="293" font-family="system-ui, sans-serif" font-size="11" fill="#0f172a" text-anchor="end">Approve</text>
  <rect x="220" y="316" width="200" height="40" rx="6" fill="#ffffff" stroke="#e2e8f0"/>
  <text x="230" y="334" font-family="system-ui, sans-serif" font-size="11" font-weight="600" fill="#0f172a">Sthira insight</text>
  <text x="230" y="348" font-family="system-ui, sans-serif" font-size="9" fill="#64748b">Stay calm. The plan is working.</text>
  <rect x="290" y="370" width="60" height="4" rx="2" fill="#cbd5e1"/>
</svg>
